<svg width="16" height="16" viewBox="0 0 16 16" fill="none" xmlns="http://www.w3.org/2000/svg">
<path fill-rule="evenodd" clip-rule="evenodd" d="M1.90625 1.90625V5.65625H5.65625V1.90625H1.90625ZM1.4375 0.5C0.919733 0.5 0.5 0.919733 0.5 1.4375V6.125C0.5 6.64277 0.919733 7.0625 1.4375 7.0625H6.125C6.64277 7.0625 7.0625 6.64277 7.0625 6.125V1.4375C7.0625 0.919733 6.64277 0.5 6.125 0.5H1.4375Z" fill="#888888"/>
<path fill-rule="evenodd" clip-rule="evenodd" d="M1.90625 10.3438V14.0938H5.65625V10.3438H1.90625ZM1.4375 8.9375C0.919733 8.9375 0.5 9.35723 0.5 9.875V14.5625C0.5 15.0803 0.919733 15.5 1.4375 15.5H6.125C6.64277 15.5 7.0625 15.0803 7.0625 14.5625V9.875C7.0625 9.35723 6.64277 8.9375 6.125 8.9375H1.4375Z" fill="#888888"/>
<path fill-rule="evenodd" clip-rule="evenodd" d="M10.3438 1.90625V5.65625H14.0938V1.90625H10.3438ZM9.875 0.5C9.35723 0.5 8.9375 0.919733 8.9375 1.4375V6.125C8.9375 6.64277 9.35723 7.0625 9.875 7.0625H14.5625C15.0803 7.0625 15.5 6.64277 15.5 6.125V1.4375C15.5 0.919733 15.0803 0.5 14.5625 0.5H9.875Z" fill="#888888"/>
<path fill-rule="evenodd" clip-rule="evenodd" d="M10.3438 10.3438V14.0938H14.0938V10.3438H10.3438ZM9.875 8.9375C9.35723 8.9375 8.9375 9.35723 8.9375 9.875V14.5625C8.9375 15.0803 9.35723 15.5 9.875 15.5H14.5625C15.0803 15.5 15.5 15.0803 15.5 14.5625V9.875C15.5 9.35723 15.0803 8.9375 14.5625 8.9375H9.875Z" fill="#888888"/>
</svg>
