<svg width="16" height="16" viewBox="0 0 16 16" fill="none" xmlns="http://www.w3.org/2000/svg">
<path d="M5.64958 2.80105C6.12749 1.40248 8.05992 1.36013 8.62654 2.67398L8.67449 2.80185L9.31943 4.68792C9.46723 5.12047 9.70608 5.51629 10.0199 5.84868C10.3336 6.18107 10.7151 6.4423 11.1384 6.61476L11.3118 6.67949L13.1979 7.32363C14.5964 7.80154 14.6388 9.73397 13.3257 10.3006L13.1979 10.3485L11.3118 10.9935C10.8791 11.1412 10.4831 11.38 10.1506 11.6938C9.81806 12.0076 9.55671 12.389 9.38416 12.8124L9.31943 12.985L8.67529 14.8719C8.19738 16.2705 6.26495 16.3128 5.69913 14.9998L5.64958 14.8719L5.00544 12.9858C4.85774 12.5531 4.61893 12.1572 4.30515 11.8246C3.99137 11.4921 3.6099 11.2308 3.1865 11.0582L3.01388 10.9935L1.12781 10.3493C-0.271564 9.87143 -0.31392 7.939 0.999937 7.37318L1.12781 7.32363L3.01388 6.67949C3.44642 6.53169 3.84224 6.29284 4.17463 5.97906C4.50702 5.66528 4.76825 5.28387 4.94071 4.86055L5.00544 4.68792L5.64958 2.80105ZM13.5559 0.0454713C13.7054 0.045471 13.8519 0.0874109 13.9788 0.166525C14.1057 0.245638 14.2078 0.358753 14.2736 0.493014L14.3119 0.586518L14.5916 1.40648L15.4124 1.68619C15.5622 1.7371 15.6936 1.83134 15.7898 1.95697C15.886 2.0826 15.9428 2.23397 15.9529 2.39189C15.963 2.54981 15.926 2.70717 15.8465 2.84404C15.7671 2.98091 15.6488 3.09111 15.5067 3.16069L15.4124 3.19905L14.5924 3.47876L14.3127 4.29952C14.2617 4.44931 14.1674 4.58059 14.0417 4.67673C13.9161 4.77287 13.7647 4.82953 13.6068 4.83955C13.4488 4.84956 13.2915 4.81247 13.1547 4.73298C13.0179 4.65349 12.9077 4.53517 12.8382 4.39303L12.7999 4.29952L12.5202 3.47956L11.6994 3.19985C11.5496 3.14894 11.4182 3.0547 11.322 2.92907C11.2258 2.80344 11.169 2.65207 11.1589 2.49415C11.1488 2.33623 11.1858 2.17887 11.2653 2.042C11.3447 1.90514 11.463 1.79493 11.6051 1.72535L11.6994 1.68699L12.5194 1.40728L12.7991 0.586518C12.853 0.42862 12.9549 0.291547 13.0906 0.194518C13.2264 0.0974892 13.3891 0.0453711 13.5559 0.0454713Z" fill="#888888"/>
</svg>
