<svg width="16" height="14" viewBox="0 0 16 14" fill="none" xmlns="http://www.w3.org/2000/svg">
<path fill-rule="evenodd" clip-rule="evenodd" d="M4.04483 1.64058C3.73612 1.64058 3.44007 1.76415 3.22178 1.98409C3.00349 2.20404 2.88086 2.50234 2.88086 2.81339C2.88086 2.96741 2.91097 3.11992 2.96946 3.26221C3.02796 3.4045 3.1137 3.53379 3.22178 3.6427C3.32986 3.7516 3.45818 3.83799 3.5994 3.89693C3.74062 3.95587 3.89197 3.98621 4.04483 3.98621C4.19768 3.98621 4.34904 3.95587 4.49026 3.89693C4.63148 3.83799 4.75979 3.7516 4.86788 3.6427C4.97596 3.53379 5.0617 3.4045 5.12019 3.26221C5.17869 3.11992 5.20879 2.96741 5.20879 2.81339C5.20879 2.50234 5.08616 2.20404 4.86788 1.98409C4.64959 1.76415 4.35353 1.64058 4.04483 1.64058ZM2.44152 1.19791C2.86675 0.769451 3.44347 0.528748 4.04483 0.528748C4.64618 0.528748 5.22291 0.769451 5.64813 1.19791C6.07335 1.62636 6.31224 2.20747 6.31224 2.81339C6.31224 3.11342 6.25359 3.4105 6.13964 3.68769C6.0257 3.96488 5.85868 4.21673 5.64813 4.42888C5.43758 4.64103 5.18762 4.80932 4.91253 4.92413C4.63743 5.03895 4.34259 5.09804 4.04483 5.09804C3.74707 5.09804 3.45222 5.03895 3.17713 4.92413C2.90203 4.80932 2.65207 4.64103 2.44152 4.42888C2.23098 4.21673 2.06396 3.96488 1.95001 3.68769C1.83606 3.4105 1.77741 3.11342 1.77741 2.81339C1.77741 2.20747 2.0163 1.62636 2.44152 1.19791ZM12.0621 1.64058C11.7534 1.64058 11.4573 1.76415 11.239 1.98409C11.0207 2.20404 10.8981 2.50234 10.8981 2.81339C10.8981 2.96741 10.9282 3.11992 10.9867 3.26221C11.0452 3.4045 11.1309 3.53379 11.239 3.6427C11.3471 3.7516 11.4754 3.83799 11.6166 3.89693C11.7579 3.95587 11.9092 3.98621 12.0621 3.98621C12.2149 3.98621 12.3663 3.95587 12.5075 3.89693C12.6487 3.83799 12.777 3.7516 12.8851 3.6427C12.9932 3.53379 13.0789 3.4045 13.1374 3.26221C13.1959 3.11992 13.226 2.96741 13.226 2.81339C13.226 2.50234 13.1034 2.20404 12.8851 1.98409C12.6668 1.76415 12.3708 1.64058 12.0621 1.64058ZM10.4588 1.19791C10.884 0.769451 11.4607 0.528748 12.0621 0.528748C12.6634 0.528748 13.2402 0.769451 13.6654 1.19791C14.0906 1.62636 14.3295 2.20747 14.3295 2.81339C14.3295 3.11342 14.2708 3.4105 14.1569 3.68769C14.0429 3.96488 13.8759 4.21673 13.6654 4.42888C13.4548 4.64103 13.2049 4.80932 12.9298 4.92413C12.6547 5.03895 12.3598 5.09804 12.0621 5.09804C11.7643 5.09804 11.4695 5.03895 11.1944 4.92413C10.9193 4.80932 10.6693 4.64103 10.4588 4.42888C10.2482 4.21673 10.0812 3.96488 9.96725 3.68769C9.8533 3.4105 9.79465 3.11342 9.79465 2.81339C9.79465 2.20747 10.0335 1.62636 10.4588 1.19791ZM8 4.87185C7.6913 4.87185 7.39524 4.99541 7.17695 5.21536C6.95867 5.4353 6.83603 5.73361 6.83603 6.04466C6.83603 6.19868 6.86614 6.35119 6.92464 6.49348C6.98313 6.63577 7.06887 6.76506 7.17695 6.87397C7.28504 6.98287 7.41335 7.06926 7.55457 7.1282C7.69579 7.18714 7.84715 7.21747 8 7.21747C8.15285 7.21747 8.30421 7.18714 8.44543 7.1282C8.58665 7.06926 8.71496 6.98287 8.82305 6.87397C8.93113 6.76506 9.01687 6.63577 9.07536 6.49348C9.13386 6.35119 9.16397 6.19868 9.16397 6.04466C9.16397 5.73361 9.04133 5.4353 8.82305 5.21536C8.60476 4.99541 8.3087 4.87185 8 4.87185ZM6.3967 4.42917C6.82192 4.00072 7.39864 3.76002 8 3.76002C8.60136 3.76002 9.17808 4.00072 9.6033 4.42917C10.0285 4.85763 10.2674 5.43874 10.2674 6.04466C10.2674 6.34469 10.2088 6.64177 10.0948 6.91896C9.98087 7.19614 9.81385 7.448 9.6033 7.66015C9.39276 7.8723 9.1428 8.04059 8.8677 8.1554C8.59261 8.27021 8.29776 8.32931 8 8.32931C7.70224 8.32931 7.40739 8.27021 7.1323 8.1554C6.8572 8.04059 6.60724 7.8723 6.3967 7.66015C6.18615 7.448 6.01913 7.19614 5.90518 6.91896C5.79123 6.64177 5.73259 6.34469 5.73259 6.04466C5.73259 5.43874 5.97147 4.85763 6.3967 4.42917ZM3.18966 6.81061C2.76897 6.81061 2.36551 6.979 2.06804 7.27873C1.77057 7.57846 1.60345 7.98499 1.60345 8.40887V9.70138H0.5V8.40887C0.5 7.69011 0.783373 7.00079 1.28778 6.49255C1.79219 5.9843 2.47631 5.69878 3.18966 5.69878H4.7931V6.81061H3.18966ZM11.2069 5.69878H12.8103C13.5237 5.69878 14.2078 5.9843 14.7122 6.49255C15.2166 7.00079 15.5 7.69011 15.5 8.40887V9.70138H14.3966V8.40887C14.3966 7.98499 14.2294 7.57846 13.932 7.27873C13.6345 6.979 13.231 6.81061 12.8103 6.81061H11.2069V5.69878ZM5.24295 9.72381C5.74736 9.21557 6.43149 8.93005 7.14483 8.93005H8.85517C9.56851 8.93005 10.2526 9.21557 10.757 9.72381C11.2615 10.2321 11.5448 10.9214 11.5448 11.6401V13.4712H10.4414V11.6401C10.4414 11.2163 10.2743 10.8097 9.97679 10.51C9.67932 10.2103 9.27586 10.0419 8.85517 10.0419H7.14483C6.72414 10.0419 6.32068 10.2103 6.02321 10.51C5.72574 10.8097 5.55862 11.2163 5.55862 11.6401V13.4712H4.45517V11.6401C4.45517 10.9214 4.73855 10.2321 5.24295 9.72381Z" fill="#888888"/>
</svg>
