<svg width="16" height="20" viewBox="0 0 16 20" fill="none" xmlns="http://www.w3.org/2000/svg">
<path d="M8.00122 19.6404C9.08886 19.6404 9.97874 18.7505 9.97874 17.6629H6.0237C6.0237 18.1874 6.23204 18.6904 6.6029 19.0612C6.97376 19.4321 7.47675 19.6404 8.00122 19.6404ZM13.9338 13.7078V8.76403C13.9338 5.72853 12.3122 3.18742 9.48436 2.51506V1.8427C9.48436 1.02203 8.82189 0.359558 8.00122 0.359558C7.18055 0.359558 6.51808 1.02203 6.51808 1.8427V2.51506C3.68033 3.18742 2.06865 5.71865 2.06865 8.76403V13.7078L0.793145 14.9833C0.170225 15.6063 0.605281 16.6741 1.48528 16.6741H14.5073C15.3873 16.6741 15.8322 15.6063 15.2093 14.9833L13.9338 13.7078Z" fill="#888888"/>
</svg>
