<svg width="16" height="8" viewBox="0 0 16 8" fill="none" xmlns="http://www.w3.org/2000/svg">
<path d="M14.0625 -0.000793366C13.8391 -0.00072139 13.6189 0.0514247 13.4192 0.151505C13.2195 0.251585 13.0458 0.396842 12.9121 0.575745C12.7783 0.754648 12.6881 0.962269 12.6486 1.18212C12.6091 1.40198 12.6215 1.62801 12.6846 1.84228L10.4551 4.07147C10.1611 3.97352 9.84319 3.97352 9.54916 4.07147L7.89633 2.41863C7.95072 2.2064 7.95586 1.98455 7.91136 1.77003C7.86686 1.5555 7.77389 1.354 7.63957 1.18091C7.50525 1.00783 7.33313 0.867752 7.13638 0.771389C6.93962 0.675026 6.72343 0.624929 6.50434 0.624929C6.28525 0.624929 6.06906 0.675026 5.8723 0.771389C5.67555 0.867752 5.50343 1.00783 5.36911 1.18091C5.23479 1.354 5.14182 1.5555 5.09732 1.77003C5.05282 1.98455 5.05796 2.2064 5.11235 2.41863L2.34805 5.18106C2.04115 5.09022 1.71273 5.10424 1.41469 5.22093C1.11666 5.33761 0.866014 5.55029 0.702372 5.82536C0.538731 6.10042 0.471429 6.42218 0.511105 6.73977C0.55078 7.05737 0.695169 7.35268 0.921451 7.57903C1.14773 7.80539 1.443 7.94987 1.76058 7.98965C2.07816 8.02943 2.39994 7.96223 2.67505 7.79867C2.95017 7.63512 3.16293 7.38454 3.27971 7.08655C3.39649 6.78855 3.41063 6.46013 3.31988 6.15321L6.04919 3.4242C6.34321 3.52222 6.66109 3.52222 6.95511 3.4242L8.60826 5.07735C8.55387 5.28958 8.54873 5.51144 8.59323 5.72596C8.63773 5.94048 8.7307 6.14199 8.86502 6.31507C8.99934 6.48815 9.17146 6.62823 9.36821 6.72459C9.56497 6.82096 9.78116 6.87105 10.0002 6.87105C10.2193 6.87105 10.4355 6.82096 10.6323 6.72459C10.829 6.62823 11.0012 6.48815 11.1355 6.31507C11.2698 6.14199 11.3628 5.94048 11.4073 5.72596C11.4518 5.51144 11.4466 5.28958 11.3922 5.07735L13.6564 2.81443C13.8541 2.87274 14.062 2.88786 14.266 2.85875C14.47 2.82964 14.6654 2.75699 14.8389 2.64572C15.0123 2.53445 15.1598 2.38717 15.2714 2.21388C15.3829 2.04058 15.4559 1.84532 15.4853 1.64134C15.5147 1.43737 15.4999 1.22945 15.4419 1.0317C15.3839 0.833942 15.284 0.650979 15.1491 0.495222C15.0141 0.339465 14.8472 0.214557 14.6598 0.128973C14.4723 0.0433899 14.2686 -0.000866613 14.0625 -0.000793366Z" fill="#888888"/>
</svg>
