<svg width="16" height="14" viewBox="0 0 16 14" fill="none" xmlns="http://www.w3.org/2000/svg">
<path d="M14 0.0272217H2C1.175 0.0272217 0.5 0.702222 0.5 1.52722V13.2197C0.5 13.8872 1.31 14.2247 1.7825 13.7522L3.5 12.0272H14C14.825 12.0272 15.5 11.3522 15.5 10.5272V1.52722C15.5 0.702222 14.825 0.0272217 14 0.0272217ZM9.1775 7.20472L8.3375 9.03472C8.30767 9.10019 8.25964 9.1557 8.19913 9.19462C8.13862 9.23355 8.0682 9.25424 7.99625 9.25424C7.9243 9.25424 7.85388 9.23355 7.79337 9.19462C7.73286 9.1557 7.68483 9.10019 7.655 9.03472L6.815 7.20472L4.985 6.36472C4.91953 6.33489 4.86402 6.28686 4.8251 6.22635C4.78617 6.16584 4.76548 6.09542 4.76548 6.02347C4.76548 5.95153 4.78617 5.8811 4.8251 5.82059C4.86402 5.76008 4.91953 5.71205 4.985 5.68222L6.815 4.84222L7.655 3.01222C7.68483 2.94675 7.73286 2.89124 7.79337 2.85232C7.85388 2.8134 7.9243 2.7927 7.99625 2.7927C8.0682 2.7927 8.13862 2.8134 8.19913 2.85232C8.25964 2.89124 8.30767 2.94675 8.3375 3.01222L9.1775 4.84222L11.0075 5.68222C11.073 5.71205 11.1285 5.76008 11.1674 5.82059C11.2063 5.8811 11.227 5.95153 11.227 6.02347C11.227 6.09542 11.2063 6.16584 11.1674 6.22635C11.1285 6.28686 11.073 6.33489 11.0075 6.36472L9.1775 7.20472Z" fill="#888888"/>
</svg>
