<svg width="16" height="12" viewBox="0 0 16 12" fill="none" xmlns="http://www.w3.org/2000/svg">
<path d="M0.5 2.94446C0.5 1.41034 1.74365 0.166687 3.27778 0.166687H12.7222C14.2563 0.166687 15.5 1.41034 15.5 2.94446V9.05558C15.5 10.5897 14.2563 11.8334 12.7222 11.8334H3.27778C1.74365 11.8334 0.5 10.5897 0.5 9.05558V2.94446Z" fill="#888888"/>
<path fill-rule="evenodd" clip-rule="evenodd" d="M13.2778 6.2778H9.94444V9.61113H13.2778V6.2778ZM9.94444 5.72224C9.63762 5.72224 9.38889 5.97097 9.38889 6.2778V9.61113C9.38889 9.91796 9.63762 10.1667 9.94444 10.1667H13.2778C13.5846 10.1667 13.8333 9.91796 13.8333 9.61113V6.2778C13.8333 5.97097 13.5846 5.72224 13.2778 5.72224H9.94444Z" fill="#BFBFBF"/>
<path fill-rule="evenodd" clip-rule="evenodd" d="M11.0556 7.38891H10.5V6.83335H11.0556V7.38891Z" fill="#BFBFBF"/>
<path fill-rule="evenodd" clip-rule="evenodd" d="M10.5 6.83335H9.94444V6.2778H10.5V6.83335Z" fill="#BFBFBF"/>
<path fill-rule="evenodd" clip-rule="evenodd" d="M10.5 8.50002H9.94444V7.94446H10.5V8.50002Z" fill="#BFBFBF"/>
<path fill-rule="evenodd" clip-rule="evenodd" d="M11.6111 7.94446H11.0556V7.38891H11.6111V7.94446Z" fill="#BFBFBF"/>
<path fill-rule="evenodd" clip-rule="evenodd" d="M11.6111 7.38891H11.0556V6.83335H11.6111V7.38891Z" fill="#BFBFBF"/>
<path fill-rule="evenodd" clip-rule="evenodd" d="M12.1667 6.83335H11.6111V6.2778H12.1667V6.83335Z" fill="#BFBFBF"/>
<path fill-rule="evenodd" clip-rule="evenodd" d="M12.1667 8.50002H11.6111V7.94446H12.1667V8.50002Z" fill="#BFBFBF"/>
<path fill-rule="evenodd" clip-rule="evenodd" d="M11.6111 9.61113H11.0556V9.05558H11.6111V9.61113Z" fill="#BFBFBF"/>
<path fill-rule="evenodd" clip-rule="evenodd" d="M13.2778 9.05558H12.7222V8.50002H13.2778V9.05558Z" fill="#BFBFBF"/>
<path fill-rule="evenodd" clip-rule="evenodd" d="M11.0556 9.05558H10.5V8.50002H11.0556V9.05558Z" fill="#BFBFBF"/>
<path fill-rule="evenodd" clip-rule="evenodd" d="M12.7222 9.61113H12.1667V9.05558H12.7222V9.61113Z" fill="#BFBFBF"/>
<path fill-rule="evenodd" clip-rule="evenodd" d="M13.2778 7.94446H12.7222V7.38891H13.2778V7.94446Z" fill="#BFBFBF"/>
<path fill-rule="evenodd" clip-rule="evenodd" d="M12.7222 7.38891H12.1667V6.83335H12.7222V7.38891Z" fill="#BFBFBF"/>
<path d="M2.27715 3.50002V3.25696L3.04104 2.23739H2.2803V1.88386H3.59975V2.12691L2.83586 3.14648H3.59659V3.50002H2.27715Z" fill="#BFBFBF"/>
<path d="M3.8138 3.50002V1.88386H4.97858V2.23739H4.25256V2.51517H4.9186V2.86871H4.25256V3.14648H4.97542V3.50002H3.8138Z" fill="#BFBFBF"/>
<path d="M5.19618 3.50002V1.88386H6.36095V2.23739H5.63494V2.51517H6.30098V2.86871H5.63494V3.14648H6.3578V3.50002H5.19618Z" fill="#BFBFBF"/>
<path d="M6.57856 3.50002V1.88386H7.01732V2.53727H7.03942L7.52553 1.88386H8.03689L7.49081 2.60356L8.04952 3.50002H7.52553L7.16252 2.89396L7.01732 3.08335V3.50002H6.57856Z" fill="#BFBFBF"/>
</svg>
