<svg width="16" height="20" viewBox="0 0 16 20" fill="none" xmlns="http://www.w3.org/2000/svg">
<path d="M3.31305 17.4989C3.56165 17.4989 3.80007 17.4002 3.97586 17.2244C4.15165 17.0486 4.25041 16.8102 4.25041 16.5616C4.25041 16.313 4.15165 16.0746 3.97586 15.8988C3.80007 15.723 3.56165 15.6242 3.31305 15.6242C3.06444 15.6242 2.82602 15.723 2.65023 15.8988C2.47444 16.0746 2.37568 16.313 2.37568 16.5616C2.37568 16.8102 2.47444 17.0486 2.65023 17.2244C2.82602 17.4002 3.06444 17.4989 3.31305 17.4989ZM4.25041 10.9355V13.9098C4.8761 14.1309 5.40346 14.5661 5.73929 15.1385C6.07512 15.7108 6.19778 16.3835 6.0856 17.0376C5.97342 17.6916 5.63362 18.285 5.12626 18.7127C4.6189 19.1405 3.97666 19.3751 3.31305 19.3751C2.64943 19.3751 2.00719 19.1405 1.49983 18.7127C0.99247 18.285 0.652669 17.6916 0.54049 17.0376C0.42831 16.3835 0.550974 15.7108 0.886801 15.1385C1.22263 14.5661 1.74999 14.1309 2.37568 13.9098V6.09025C1.74999 5.86912 1.22263 5.43391 0.886801 4.86154C0.550974 4.28918 0.42831 3.61651 0.54049 2.96245C0.652669 2.30839 0.99247 1.71504 1.49983 1.2873C2.00719 0.859548 2.64943 0.624939 3.31305 0.624939C3.97666 0.624939 4.6189 0.859548 5.12626 1.2873C5.63362 1.71504 5.97342 2.30839 6.0856 2.96245C6.19778 3.61651 6.07512 4.28918 5.73929 4.86154C5.40346 5.43391 4.8761 5.86912 4.25041 6.09025V8.28369C4.54287 8.18058 4.85689 8.12434 5.18497 8.1234L10.8439 8.11777C11.0923 8.11753 11.3305 8.01866 11.5061 7.84289C11.6817 7.66713 11.7803 7.42885 11.7803 7.18041V6.10056C11.1507 5.88487 10.618 5.45296 10.2768 4.88159C9.93563 4.31022 9.80805 3.63639 9.91677 2.97984C10.0255 2.32329 10.3634 1.72654 10.8706 1.29564C11.3777 0.864735 12.0212 0.627587 12.6867 0.626334C13.3475 0.626058 13.9872 0.858459 14.4937 1.28276C15.0002 1.70707 15.3411 2.29618 15.4567 2.94675C15.5722 3.59731 15.455 4.26779 15.1255 4.84054C14.7961 5.4133 14.2755 5.85176 13.655 6.079V7.18041C13.655 7.92574 13.3591 8.64058 12.8324 9.16787C12.3056 9.69516 11.5911 9.99176 10.8457 9.99251L5.18684 9.99813C4.9384 9.99838 4.70022 10.0972 4.52463 10.273C4.34904 10.4488 4.25041 10.6871 4.25041 10.9355ZM3.31305 4.3758C3.56165 4.3758 3.80007 4.27705 3.97586 4.10125C4.15165 3.92546 4.25041 3.68704 4.25041 3.43844C4.25041 3.18983 4.15165 2.95141 3.97586 2.77562C3.80007 2.59983 3.56165 2.50107 3.31305 2.50107C3.06444 2.50107 2.82602 2.59983 2.65023 2.77562C2.47444 2.95141 2.37568 3.18983 2.37568 3.43844C2.37568 3.68704 2.47444 3.92546 2.65023 4.10125C2.82602 4.27705 3.06444 4.3758 3.31305 4.3758ZM12.6867 4.3758C12.9353 4.3758 13.1737 4.27705 13.3495 4.10125C13.5253 3.92546 13.6241 3.68704 13.6241 3.43844C13.6241 3.18983 13.5253 2.95141 13.3495 2.77562C13.1737 2.59983 12.9353 2.50107 12.6867 2.50107C12.4381 2.50107 12.1997 2.59983 12.0239 2.77562C11.8481 2.95141 11.7494 3.18983 11.7494 3.43844C11.7494 3.68704 11.8481 3.92546 12.0239 4.10125C12.1997 4.27705 12.4381 4.3758 12.6867 4.3758Z" fill="#888888"/>
</svg>
