<svg width="16" height="16" viewBox="0 0 16 16" fill="none" xmlns="http://www.w3.org/2000/svg">
<path d="M6.93576 6.77832C8.71844 6.77832 10.1636 5.33317 10.1636 3.55049C10.1636 1.76781 8.71844 0.322662 6.93576 0.322662C5.15308 0.322662 3.70793 1.76781 3.70793 3.55049C3.70793 5.33317 5.15308 6.77832 6.93576 6.77832Z" fill="#888888"/>
<path d="M9.00437 12.6794H12.502V13.3789H9.00437V12.6794Z" fill="#888888"/>
<path d="M6.00638 13.6787V15.1777C6.00638 15.3102 6.05903 15.4373 6.15273 15.531C6.24644 15.6247 6.37353 15.6773 6.50605 15.6773H15.0003C15.1329 15.6773 15.2599 15.6247 15.3537 15.531C15.4474 15.4373 15.5 15.3102 15.5 15.1777V10.181C15.5 10.0485 15.4474 9.92142 15.3537 9.82772C15.2599 9.73401 15.1329 9.68137 15.0003 9.68137H11.5027V8.94686C11.5027 8.81434 11.45 8.68725 11.3563 8.59355C11.2626 8.49984 11.1355 8.4472 11.003 8.4472C10.8705 8.4472 10.7434 8.49984 10.6497 8.59355C10.556 8.68725 10.5034 8.81434 10.5034 8.94686V9.68137H9.50403V7.89257C8.65498 7.75364 7.7961 7.68346 6.93576 7.68271C5.03843 7.67464 3.16237 8.08226 1.43945 8.87691C1.15589 9.01073 0.91666 9.22308 0.750157 9.48878C0.583653 9.75448 0.496864 10.0624 0.500087 10.3759V13.6787H6.00638ZM14.5007 14.678H7.00571V10.6807H10.5034V10.8906C10.5034 11.0231 10.556 11.1502 10.6497 11.2439C10.7434 11.3376 10.8705 11.3902 11.003 11.3902C11.1355 11.3902 11.2626 11.3376 11.3563 11.2439C11.45 11.1502 11.5027 11.0231 11.5027 10.8906V10.6807H14.5007V14.678Z" fill="#888888"/>
</svg>
