<svg width="200" height="200" viewBox="0 0 200 200" fill="none" xmlns="http://www.w3.org/2000/svg">
<path fill-rule="evenodd" clip-rule="evenodd" d="M1.5184 82.6972C9.69275 36.118 49.4134 1.64415 96.5841 0.056775C115.885 -0.592891 135.153 4.34143 151.791 14.4236C157.046 17.5897 158.748 24.4072 155.574 29.6622C152.416 34.9171 145.598 36.6031 140.343 33.4451C127.309 25.5586 112.301 21.6935 97.2673 22.2034C60.5808 23.437 29.7512 50.2878 23.3848 86.53C20.5642 102.558 22.8338 119.261 29.9474 133.924C40.8603 156.457 61.9138 172.297 86.5266 176.621C106.165 180.067 127.11 176.037 144.693 163.71C169.577 146.243 181.733 116.143 176.634 86.5957C175.615 80.5513 179.669 74.8192 185.705 73.7914C191.741 72.7552 197.482 76.8178 198.526 82.8622C205.056 120.822 189.414 159.376 157.366 181.852C134.726 197.716 107.858 202.913 82.6937 198.489C28.3019 188.933 -8.00564 136.975 1.51651 82.6986L1.5184 82.6972ZM185.155 33.5601C148.033 46.8004 120.5 77.0466 100.18 111.857L79.1929 90.8787C74.859 86.5365 67.8278 86.5365 63.4939 90.8787C59.1435 95.2208 59.1435 102.252 63.4939 106.594L94.9087 138.026C100.164 143.281 109.136 142.006 112.623 135.287C130.871 100.148 156.718 67.2933 192.623 54.4806C198.404 52.4165 201.422 46.0677 199.342 40.2864C197.286 34.5134 190.936 31.4959 185.155 33.5601Z" fill="#00AF07"/>
</svg>
