<svg width="24" height="18" viewBox="0 0 24 18" fill="none" xmlns="http://www.w3.org/2000/svg">
<path fill-rule="evenodd" clip-rule="evenodd" d="M0.845023 1.02125C0.939703 0.792893 1.09997 0.597737 1.30555 0.460457C1.51114 0.323177 1.75282 0.249938 2.00002 0.25H14.5C15.6491 0.25 16.7869 0.476325 17.8485 0.916054C18.9101 1.35578 19.8747 2.0003 20.6872 2.81282C21.4997 3.62533 22.1442 4.58992 22.584 5.65152C23.0237 6.71312 23.25 7.85093 23.25 9C23.25 10.1491 23.0237 11.2869 22.584 12.3485C22.1442 13.4101 21.4997 14.3747 20.6872 15.1872C19.8747 15.9997 18.9101 16.6442 17.8485 17.0839C16.7869 17.5237 15.6491 17.75 14.5 17.75H3.25002C2.9185 17.75 2.60056 17.6183 2.36614 17.3839C2.13172 17.1495 2.00002 16.8315 2.00002 16.5C2.00002 16.1685 2.13172 15.8505 2.36614 15.6161C2.60056 15.3817 2.9185 15.25 3.25002 15.25H14.5C16.1576 15.25 17.7473 14.5915 18.9194 13.4194C20.0915 12.2473 20.75 10.6576 20.75 9C20.75 7.3424 20.0915 5.75269 18.9194 4.58058C17.7473 3.40848 16.1576 2.75 14.5 2.75H5.01752L7.25877 4.99125C7.48647 5.227 7.61246 5.54276 7.60961 5.8705C7.60677 6.19825 7.47531 6.51176 7.24355 6.74352C7.01179 6.97528 6.69827 7.10674 6.37052 7.10959C6.04278 7.11244 5.72703 6.98645 5.49127 6.75875L1.11627 2.38375C0.941357 2.20894 0.822221 1.98618 0.773937 1.74365C0.725653 1.50112 0.750392 1.24972 0.845023 1.02125Z" fill="black"/>
</svg>
