<svg width="81" height="22" viewBox="0 0 81 22" fill="none" xmlns="http://www.w3.org/2000/svg">
<path d="M0.392045 21V17.9375L10.017 5.09091H0.431818V0.636363H17.0568V3.69886L7.43182 16.5455H17.017V21H0.392045ZM19.7539 21V0.636363H34.43V5.09091H25.2823V8.59091H33.6744V13.0455H25.2823V16.5455H34.3903V21H19.7539ZM37.1719 21V0.636363H51.848V5.09091H42.7003V8.59091H51.0923V13.0455H42.7003V16.5455H51.8082V21H37.1719ZM54.5898 21V0.636363H60.1183V8.86932H60.3967L66.5217 0.636363H72.9648L66.0842 9.70455L73.1239 21H66.5217L61.9478 13.3636L60.1183 15.75V21H54.5898ZM77.668 21.3182C76.899 21.3182 76.2395 21.0497 75.6893 20.5128C75.1457 19.9692 74.8772 19.3097 74.8839 18.5341C74.8772 17.7784 75.1457 17.1321 75.6893 16.5952C76.2395 16.0582 76.899 15.7898 77.668 15.7898C78.3971 15.7898 79.0401 16.0582 79.5969 16.5952C80.1604 17.1321 80.4454 17.7784 80.4521 18.5341C80.4454 19.0511 80.3095 19.5218 80.0444 19.946C79.7859 20.3636 79.4478 20.6984 79.0302 20.9503C78.6126 21.1955 78.1585 21.3182 77.668 21.3182Z" fill="black"/>
</svg>
