<svg width="169" height="168" viewBox="0 0 169 168" fill="none" xmlns="http://www.w3.org/2000/svg">
<path d="M141.667 0.666687C143.877 0.666687 145.996 1.54466 147.559 3.10746C149.122 4.67027 150 6.78988 150 9.00002V40.3084L133.333 56.975V17.3334H16.6667V150.667H133.333V127.683L150 111.017V159C150 161.21 149.122 163.33 147.559 164.893C145.996 166.455 143.877 167.333 141.667 167.333H8.33333C6.1232 167.333 4.00358 166.455 2.44078 164.893C0.877973 163.33 0 161.21 0 159V9.00002C0 6.78988 0.877973 4.67027 2.44078 3.10746C4.00358 1.54466 6.1232 0.666687 8.33333 0.666687H141.667ZM156.483 57.4L168.267 69.1834L103.45 134L91.65 133.983L91.6667 122.217L156.483 57.4ZM83.3333 84V100.667H41.6667V84H83.3333ZM108.333 50.6667V67.3334H41.6667V50.6667H108.333Z" fill="#797979"/>
</svg>
