<svg width="15" height="12" viewBox="0 0 15 12" fill="none" xmlns="http://www.w3.org/2000/svg">
<path fill-rule="evenodd" clip-rule="evenodd" d="M0.65901 0.65901C1.08097 0.237053 1.65326 0 2.25 0H12.75C13.3467 0 13.919 0.237053 14.341 0.65901C14.7629 1.08097 15 1.65326 15 2.25V9.75C15 10.3467 14.7629 10.919 14.341 11.341C13.919 11.7629 13.3467 12 12.75 12H2.25C1.65326 12 1.08097 11.7629 0.65901 11.341C0.237053 10.919 0 10.3467 0 9.75V2.25C0 1.65326 0.237053 1.08097 0.65901 0.65901ZM2.25 1.5C2.05109 1.5 1.86032 1.57902 1.71967 1.71967C1.57902 1.86032 1.5 2.05109 1.5 2.25V9.75C1.5 9.94891 1.57902 10.1397 1.71967 10.2803C1.86032 10.421 2.05109 10.5 2.25 10.5H12.75C12.9489 10.5 13.1397 10.421 13.2803 10.2803C13.421 10.1397 13.5 9.94891 13.5 9.75V2.25C13.5 2.05109 13.421 1.86032 13.2803 1.71967C13.1397 1.57902 12.9489 1.5 12.75 1.5H2.25ZM3.16435 3.28148C3.42311 2.95803 3.89507 2.90559 4.21852 3.16435L7.03102 5.41435C7.16404 5.52085 7.3296 5.57906 7.5 5.57906C7.6704 5.57906 7.83573 5.52103 7.96875 5.41453L10.7815 3.16435C11.1049 2.90559 11.5769 2.95803 11.8357 3.28148C12.0944 3.60493 12.042 4.07689 11.7185 4.33565L8.90625 6.58547C8.90617 6.58553 8.90633 6.58541 8.90625 6.58547C8.50722 6.90486 8.01111 7.07906 7.5 7.07906C6.98889 7.07906 6.493 6.90504 6.09398 6.58565C6.0939 6.58559 6.09406 6.58571 6.09398 6.58565L3.28148 4.33565C2.95803 4.07689 2.90559 3.60493 3.16435 3.28148Z" fill="#ACACAC"/>
</svg>
