<svg width="49" height="37" viewBox="0 0 49 37" fill="none" xmlns="http://www.w3.org/2000/svg">
<g filter="url(#filter0_d_4675_5778)">
<rect x="5" y="5" width="39" height="27" rx="5" fill="white"/>
<g clip-path="url(#clip0_4675_5778)">
<path d="M16.3631 27.9061V26.6486C16.3631 26.1664 16.0749 25.8521 15.581 25.8521C15.334 25.8521 15.0665 25.9359 14.8812 26.2084C14.7372 25.9779 14.5314 25.8521 14.2227 25.8521C14.0168 25.8521 13.8111 25.9149 13.6464 26.1455V25.894H13.2142V27.9061H13.6464V26.7952C13.6464 26.439 13.8317 26.2713 14.1199 26.2713C14.4079 26.2713 14.552 26.4599 14.552 26.7952V27.9061H14.9842V26.7952C14.9842 26.439 15.1899 26.2713 15.4575 26.2713C15.7457 26.2713 15.8897 26.4599 15.8897 26.7952V27.9061H16.3631ZM22.7635 25.894H22.0639V25.2862H21.6317V25.894H21.2406V26.2922H21.6316V27.2145C21.6316 27.6756 21.8168 27.948 22.3108 27.948C22.496 27.948 22.7017 27.8852 22.8459 27.8014L22.7224 27.4241C22.5989 27.5079 22.4549 27.5289 22.352 27.5289C22.1462 27.5289 22.0639 27.4031 22.0639 27.1935V26.2922H22.7635V25.894ZM26.4269 25.852C26.18 25.852 26.0153 25.9779 25.9124 26.1455V25.894H25.4802V27.9061H25.9124V26.7743C25.9124 26.439 26.0564 26.2504 26.324 26.2504C26.4063 26.2504 26.5092 26.2714 26.5915 26.2923L26.715 25.8731C26.6327 25.8521 26.5092 25.8521 26.4269 25.8521M20.8908 26.0618C20.6849 25.915 20.3968 25.8522 20.0881 25.8522C19.5942 25.8522 19.265 26.1037 19.265 26.5019C19.265 26.8374 19.5119 27.0259 19.9441 27.0888L20.1499 27.1098C20.3763 27.1517 20.4997 27.2146 20.4997 27.3194C20.4997 27.4661 20.3351 27.5709 20.0469 27.5709C19.7587 27.5709 19.5324 27.4661 19.3883 27.3613L19.1825 27.6966C19.409 27.8643 19.7177 27.9481 20.0263 27.9481C20.6026 27.9481 20.9319 27.6757 20.9319 27.2984C20.9319 26.9421 20.6644 26.7534 20.2527 26.6906L20.0469 26.6696C19.8617 26.6486 19.7177 26.6068 19.7177 26.481C19.7177 26.3343 19.8617 26.2505 20.0881 26.2505C20.3351 26.2505 20.582 26.3552 20.7055 26.4181L20.8908 26.0618ZM32.3747 25.8522C32.1276 25.8522 31.963 25.978 31.8601 26.1456V25.8941H31.4279V27.9062H31.8601V26.7744C31.8601 26.4391 32.0042 26.2505 32.2716 26.2505C32.354 26.2505 32.457 26.2715 32.5393 26.2924L32.6628 25.8732C32.5805 25.8522 32.457 25.8522 32.3747 25.8522ZM26.8591 26.9002C26.8591 27.508 27.2706 27.9481 27.9087 27.9481C28.1968 27.9481 28.4026 27.8853 28.6084 27.7177L28.4026 27.3613C28.238 27.4871 28.0733 27.5499 27.8881 27.5499C27.5382 27.5499 27.2913 27.2984 27.2913 26.9002C27.2913 26.5229 27.5382 26.2714 27.8881 26.2505C28.0733 26.2505 28.238 26.3133 28.4026 26.4391L28.6084 26.0828C28.4026 25.915 28.1968 25.8522 27.9087 25.8522C27.2706 25.8522 26.8591 26.2924 26.8591 26.9002ZM30.8517 26.9002V25.8941H30.4195V26.1456C30.2754 25.957 30.0696 25.8522 29.8021 25.8522C29.2464 25.8522 28.8142 26.2924 28.8142 26.9002C28.8142 27.508 29.2464 27.9481 29.8021 27.9481C30.0902 27.9481 30.296 27.8434 30.4195 27.6547V27.9062H30.8517V26.9002ZM29.267 26.9002C29.267 26.5439 29.4934 26.2505 29.8638 26.2505C30.2136 26.2505 30.4607 26.5229 30.4607 26.9002C30.4607 27.2565 30.2136 27.5499 29.8638 27.5499C29.4934 27.5289 29.267 27.2565 29.267 26.9002ZM24.1013 25.8522C23.525 25.8522 23.1134 26.2714 23.1134 26.9002C23.1134 27.529 23.525 27.9481 24.1219 27.9481C24.41 27.9481 24.6981 27.8643 24.9245 27.6757L24.7187 27.3613C24.554 27.4871 24.3483 27.5709 24.1425 27.5709C23.8749 27.5709 23.6074 27.4452 23.5456 27.0887H25.0069V26.9212C25.0275 26.2714 24.6571 25.8522 24.1013 25.8522ZM24.1012 26.2294C24.3687 26.2294 24.554 26.3972 24.5951 26.7116H23.5661C23.6073 26.4391 23.7925 26.2294 24.1012 26.2294ZM34.8236 26.9002V25.0977H34.3914V26.1456C34.2473 25.957 34.0415 25.8522 33.774 25.8522C33.2183 25.8522 32.7861 26.2924 32.7861 26.9002C32.7861 27.508 33.2183 27.9481 33.774 27.9481C34.0622 27.9481 34.268 27.8434 34.3914 27.6547V27.9062H34.8236V26.9002ZM33.239 26.9002C33.239 26.5439 33.4653 26.2505 33.8358 26.2505C34.1856 26.2505 34.4326 26.5229 34.4326 26.9002C34.4326 27.2565 34.1856 27.5499 33.8358 27.5499C33.4653 27.5289 33.239 27.2565 33.239 26.9002ZM18.7914 26.9002V25.8941H18.3592V26.1456C18.2151 25.957 18.0094 25.8522 17.7418 25.8522C17.1861 25.8522 16.754 26.2924 16.754 26.9002C16.754 27.508 17.1861 27.9481 17.7418 27.9481C18.03 27.9481 18.2358 27.8434 18.3592 27.6547V27.9062H18.7914V26.9002ZM17.1861 26.9002C17.1861 26.5439 17.4125 26.2505 17.783 26.2505C18.1328 26.2505 18.3799 26.5229 18.3799 26.9002C18.3799 27.2565 18.1328 27.5499 17.783 27.5499C17.4125 27.5289 17.1861 27.2565 17.1861 26.9002Z" fill="black"/>
<path d="M20.7467 10.6133H27.2295V22.4764H20.7467V10.6133Z" fill="#FF5F00"/>
<path d="M21.1583 16.5455C21.1583 14.1352 22.2697 11.9972 23.9778 10.6139C22.7225 9.60781 21.1378 9 19.4091 9C15.3134 9 12 12.3745 12 16.5455C12 20.7165 15.3134 24.091 19.409 24.091C21.1377 24.091 22.7224 23.4832 23.9778 22.477C22.2697 21.1146 21.1583 18.9558 21.1583 16.5455Z" fill="#EB001B"/>
<path d="M35.9762 16.5455C35.9762 20.7164 32.6628 24.091 28.5672 24.091C26.8385 24.091 25.2538 23.4832 23.9984 22.477C25.7272 21.0937 26.8179 18.9558 26.8179 16.5455C26.8179 14.1352 25.7065 11.9972 23.9984 10.6139C25.2537 9.60781 26.8385 9 28.5672 9C32.6628 9 35.9762 12.3955 35.9762 16.5455Z" fill="#F79E1B"/>
</g>
</g>
<defs>
<filter id="filter0_d_4675_5778" x="0" y="0" width="49" height="37" filterUnits="userSpaceOnUse" color-interpolation-filters="sRGB">
<feFlood flood-opacity="0" result="BackgroundImageFix"/>
<feColorMatrix in="SourceAlpha" type="matrix" values="0 0 0 0 0 0 0 0 0 0 0 0 0 0 0 0 0 0 127 0" result="hardAlpha"/>
<feOffset/>
<feGaussianBlur stdDeviation="2.5"/>
<feComposite in2="hardAlpha" operator="out"/>
<feColorMatrix type="matrix" values="0 0 0 0 0 0 0 0 0 0 0 0 0 0 0 0 0 0 0.25 0"/>
<feBlend mode="normal" in2="BackgroundImageFix" result="effect1_dropShadow_4675_5778"/>
<feBlend mode="normal" in="SourceGraphic" in2="effect1_dropShadow_4675_5778" result="shape"/>
</filter>
<clipPath id="clip0_4675_5778">
<rect width="24" height="19" fill="white" transform="translate(12 9)"/>
</clipPath>
</defs>
</svg>
