<svg width="22" height="11" viewBox="0 0 22 11" fill="none" xmlns="http://www.w3.org/2000/svg">
<path d="M21 10.0161L10 10.0161" stroke="black" stroke-width="1.29032" stroke-linecap="round"/>
<path d="M21 6.14516C21.3563 6.14516 21.6452 5.85631 21.6452 5.5C21.6452 5.14369 21.3563 4.85484 21 4.85484V6.14516ZM0.5438 5.0438C0.291849 5.29575 0.291849 5.70425 0.5438 5.9562L4.64958 10.062C4.90153 10.3139 5.31003 10.3139 5.56198 10.062C5.81393 9.81003 5.81393 9.40153 5.56198 9.14958L1.9124 5.5L5.56198 1.85042C5.81393 1.59847 5.81393 1.18997 5.56198 0.938021C5.31003 0.68607 4.90153 0.68607 4.64958 0.938021L0.5438 5.0438ZM21 4.85484L0.999998 4.85484V6.14516L21 6.14516V4.85484Z" fill="black"/>
<path d="M21 0.983826L10 0.983826" stroke="black" stroke-width="1.29032" stroke-linecap="round"/>
</svg>
