<svg width="15" height="16" viewBox="0 0 15 16" fill="none" xmlns="http://www.w3.org/2000/svg">
<path d="M7.5 0.0830078C9.42833 0.0830078 11.2133 0.423008 12.5483 1.00717C13.2142 1.29884 13.8058 1.66717 14.2417 2.11884C14.6458 2.53551 14.9458 3.05884 14.9933 3.66551L15 3.83301V12.1663C15 12.8447 14.6825 13.4247 14.2417 13.8805C13.8058 14.3322 13.2142 14.7005 12.5483 14.9922C11.2133 15.5755 9.42833 15.9163 7.5 15.9163C5.57167 15.9163 3.78667 15.5763 2.45167 14.9922C1.78583 14.7005 1.19417 14.3322 0.758333 13.8805C0.354167 13.4638 0.0541666 12.9405 0.00666658 12.3338L0 12.1663V3.83301C0 3.15467 0.3175 2.57467 0.758333 2.11884C1.19417 1.66717 1.78583 1.29884 2.45167 1.00717C3.78667 0.423841 5.57167 0.0830078 7.5 0.0830078ZM13.3333 10.4222C13.0809 10.5738 12.8186 10.7085 12.5483 10.8255C11.2133 11.4088 9.42833 11.7497 7.5 11.7497C5.57167 11.7497 3.78667 11.4097 2.45167 10.8255C2.18138 10.7085 1.91914 10.5738 1.66667 10.4222V12.1663C1.66667 12.293 1.72167 12.4797 1.95667 12.7222C2.195 12.9688 2.58 13.2288 3.12 13.4655C4.19833 13.9372 5.74583 14.2497 7.5 14.2497C9.25417 14.2497 10.8017 13.9372 11.88 13.4655C12.42 13.2288 12.805 12.9688 13.0433 12.7222C13.2783 12.4805 13.3333 12.293 13.3333 12.1663V10.4222ZM13.3333 6.25551C13.0809 6.40714 12.8186 6.54188 12.5483 6.65884C11.2133 7.24217 9.42833 7.58301 7.5 7.58301C5.57167 7.58301 3.78667 7.24301 2.45167 6.65884C2.18138 6.54188 1.91914 6.40714 1.66667 6.25551V7.99967C1.66667 8.12634 1.72167 8.31301 1.95667 8.55551C2.195 8.80217 2.58 9.06217 3.12 9.29884C4.19833 9.77051 5.74583 10.083 7.5 10.083C9.25417 10.083 10.8017 9.77051 11.88 9.29884C12.42 9.06217 12.805 8.80217 13.0433 8.55551C13.2783 8.31384 13.3333 8.12634 13.3333 7.99967V6.25551ZM7.5 1.74967C5.74583 1.74967 4.19833 2.06217 3.12 2.53384C2.58 2.77051 2.195 3.03051 1.95667 3.27717C1.72167 3.51884 1.66667 3.70634 1.66667 3.83301C1.66667 3.95967 1.72167 4.14634 1.95667 4.38884C2.195 4.63551 2.58 4.89551 3.12 5.13217C4.19833 5.60384 5.74583 5.91634 7.5 5.91634C9.25417 5.91634 10.8017 5.60384 11.88 5.13217C12.42 4.89551 12.805 4.63551 13.0433 4.38884C13.2783 4.14717 13.3333 3.95967 13.3333 3.83301C13.3333 3.70634 13.2783 3.51967 13.0433 3.27717C12.805 3.03051 12.42 2.77051 11.88 2.53384C10.8017 2.06217 9.25417 1.74967 7.5 1.74967Z" fill="#ACACAC"/>
</svg>
