<svg width="31" height="32" viewBox="0 0 31 32" fill="none" xmlns="http://www.w3.org/2000/svg">
<path fill-rule="evenodd" clip-rule="evenodd" d="M19.924 2.66223L15.5904 0.0634766L11.2569 2.66223L6.2237 3.10773L4.2437 7.75623L0.434448 11.075L1.5662 16.0002L0.434448 20.9255L4.2437 24.2442L6.2237 28.8927L11.2569 29.3382L15.5904 31.937L19.924 29.3382L24.9572 28.8927L26.9372 24.2442L30.7487 20.9255L29.6124 16.0002L30.7464 11.075L26.9349 7.75623L24.9549 3.10773L19.924 2.66223ZM10.3749 12.6252C10.3749 12.3269 10.4935 12.0407 10.7045 11.8297C10.9154 11.6188 11.2016 11.5002 11.4999 11.5002C11.7983 11.5002 12.0845 11.6188 12.2954 11.8297C12.5064 12.0407 12.6249 12.3269 12.6249 12.6252C12.6249 12.9236 12.5064 13.2097 12.2954 13.4207C12.0845 13.6317 11.7983 13.7502 11.4999 13.7502C11.2016 13.7502 10.9154 13.6317 10.7045 13.4207C10.4935 13.2097 10.3749 12.9236 10.3749 12.6252ZM11.4999 9.25023C10.6048 9.25023 9.7464 9.60581 9.11346 10.2387C8.48053 10.8717 8.12495 11.7301 8.12495 12.6252C8.12495 13.5203 8.48053 14.3788 9.11346 15.0117C9.7464 15.6446 10.6048 16.0002 11.4999 16.0002C12.3951 16.0002 13.2535 15.6446 13.8864 15.0117C14.5194 14.3788 14.8749 13.5203 14.8749 12.6252C14.8749 11.7301 14.5194 10.8717 13.8864 10.2387C13.2535 9.60581 12.3951 9.25023 11.4999 9.25023ZM11.1714 22.4217L22.4214 11.1717L20.8284 9.57873L9.57845 20.8287L11.1714 22.4217ZM19.3749 20.5002C19.3749 20.2019 19.4935 19.9157 19.7045 19.7047C19.9154 19.4938 20.2016 19.3752 20.4999 19.3752C20.7983 19.3752 21.0845 19.4938 21.2954 19.7047C21.5064 19.9157 21.6249 20.2019 21.6249 20.5002C21.6249 20.7986 21.5064 21.0847 21.2954 21.2957C21.0845 21.5067 20.7983 21.6252 20.4999 21.6252C20.2016 21.6252 19.9154 21.5067 19.7045 21.2957C19.4935 21.0847 19.3749 20.7986 19.3749 20.5002ZM20.4999 17.1252C19.6048 17.1252 18.7464 17.4808 18.1135 18.1137C17.4805 18.7467 17.1249 19.6051 17.1249 20.5002C17.1249 21.3953 17.4805 22.2538 18.1135 22.8867C18.7464 23.5197 19.6048 23.8752 20.4999 23.8752C21.3951 23.8752 22.2535 23.5197 22.8864 22.8867C23.5194 22.2538 23.8749 21.3953 23.8749 20.5002C23.8749 19.6051 23.5194 18.7467 22.8864 18.1137C22.2535 17.4808 21.3951 17.1252 20.4999 17.1252Z" fill="#FF9A62"/>
</svg>
