<svg width="41" height="41" viewBox="0 0 41 41" fill="none" xmlns="http://www.w3.org/2000/svg">
<path d="M31.8982 5.66432L27.8982 3.55419C24.3862 1.7033 22.6302 0.776855 20.7422 0.776855C18.8542 0.776855 17.0982 1.70129 13.5862 3.55419L12.9442 3.89382L30.7902 14.141L38.8222 10.1016C37.5302 8.63055 35.4462 7.53128 31.8982 5.6603M40.2382 12.7624L32.2422 16.7817V22.883C32.2422 23.2827 32.0842 23.6661 31.8028 23.9487C31.5215 24.2314 31.14 24.3902 30.7422 24.3902C30.3444 24.3902 29.9628 24.2314 29.6815 23.9487C29.4002 23.6661 29.2422 23.2827 29.2422 22.883V18.2889L22.2422 21.8058V40.7769C23.6782 40.4171 25.3122 39.557 27.8982 38.1925L31.8982 36.0823C36.2002 33.8134 38.3522 32.68 39.5482 30.6402C40.7422 28.6024 40.7422 26.0642 40.7422 20.9939V20.7588C40.7422 16.9545 40.7422 14.5751 40.2382 12.7624ZM19.2422 40.7769V21.8058L1.24619 12.7624C0.742188 14.5751 0.742188 16.9545 0.742188 20.7548V20.9899C0.742188 26.0642 0.742187 28.6024 1.93619 30.6402C3.13219 32.68 5.28419 33.8154 9.58619 36.0843L13.5862 38.1925C16.1722 39.557 17.8062 40.4171 19.2422 40.7769ZM2.66219 10.1036L20.7422 19.1872L27.5642 15.7608L9.79219 5.55579L9.58619 5.66432C6.04019 7.53329 3.95419 8.63256 2.66219 10.1056" fill="#FF9A62"/>
</svg>
