<svg width="28" height="28" viewBox="0 0 28 28" fill="none" xmlns="http://www.w3.org/2000/svg">
<path d="M20.6307 6.70217C20.6307 6.70217 22.8879 5.57015 24.2886 6.71684C24.5165 6.90081 24.801 7.26648 24.9262 7.53397C25.1452 8.00461 25.1452 8.46058 25.1452 9.37477V21.7999C25.1452 22.9353 23.9714 23.7151 22.8879 23.4623C21.7775 23.2072 20.6414 23.0804 19.502 23.0842C17.3384 23.0842 15.3622 23.5199 13.8589 24.2377C12.3555 24.9555 10.3793 25.39 8.21572 25.39C7.0126 25.39 5.86817 25.2546 4.82983 25.0131C4.16281 24.8562 3.82874 24.7783 3.4292 24.4555C3.16591 24.2264 2.94938 23.9486 2.79153 23.6373C2.57257 23.1666 2.57257 22.7107 2.57257 21.7976V9.37477C2.57257 8.23711 3.74635 7.45609 4.82983 7.71116C5.70452 7.91545 6.65483 8.04298 7.65141 8.07797" stroke="black" stroke-width="1.5" stroke-linecap="round" stroke-linejoin="round"/>
<path d="M6.52277 16.9253V16.9355M21.195 14.659V14.6703M11.0373 6.76765C11.5926 7.33874 13.0688 9.58923 13.8589 9.58923M13.8589 9.58923C14.6489 9.58923 16.1252 7.33874 16.6804 6.76765M13.8589 9.58923V2.81744M16.6804 15.7967C16.6804 16.545 16.3832 17.2627 15.854 17.7919C15.3249 18.321 14.6072 18.6183 13.8589 18.6183C13.1105 18.6183 12.3929 18.321 11.8637 17.7919C11.3346 17.2627 11.0373 16.545 11.0373 15.7967C11.0373 15.0484 11.3346 14.3307 11.8637 13.8015C12.3929 13.2724 13.1105 12.9751 13.8589 12.9751C14.6072 12.9751 15.3249 13.2724 15.854 13.8015C16.3832 14.3307 16.6804 15.0484 16.6804 15.7967Z" stroke="black" stroke-width="1.5" stroke-linecap="round" stroke-linejoin="round"/>
</svg>
