<svg width="19" height="87" viewBox="0 0 19 87" fill="none" xmlns="http://www.w3.org/2000/svg">
<path d="M1.93913 2.00195L1.939 25.6477C1.939 26.7083 2.36043 27.7254 3.11058 28.4753C3.86073 29.2252 4.87814 29.6465 5.93901 29.6465H17.818M17.818 29.6465C17.818 29.8435 17.7801 30.0376 17.7046 30.2196C17.6291 30.4016 17.5185 30.5669 17.379 30.7061L13.582 34.502M17.818 29.6465C17.818 29.2626 17.672 28.8797 17.379 28.5868L13.583 24.79M1.49999 53.002L1.49987 76.6477C1.49987 77.7083 1.9213 78.7254 2.67144 79.4753C3.42159 80.2252 4.43901 80.6465 5.49987 80.6465H17.3789M17.3789 80.6465C17.3788 80.8435 17.3409 81.0376 17.2655 81.2196C17.19 81.4016 17.0793 81.5669 16.9399 81.7061L13.1429 85.502M17.3789 80.6465C17.3789 80.2626 17.2329 79.8797 16.9399 79.5868L13.1439 75.79M1.92689 1L1.49996 77.002" stroke="#696969" stroke-width="1.5" stroke-linecap="round" stroke-linejoin="round"/>
</svg>
