<svg width="15" height="20" viewBox="0 0 15 20" fill="none" xmlns="http://www.w3.org/2000/svg">
<path d="M7.5 4.68844C9.48912 4.68844 11.3968 5.47861 12.8033 6.88514C14.2098 8.29166 15 10.1993 15 12.1884C15 14.1776 14.2098 16.0852 12.8033 17.4917C11.3968 18.8983 9.48912 19.6884 7.5 19.6884C5.51088 19.6884 3.60322 18.8983 2.1967 17.4917C0.790176 16.0852 0 14.1776 0 12.1884C0 10.1993 0.790176 8.29166 2.1967 6.88514C3.60322 5.47861 5.51088 4.68844 7.5 4.68844ZM7.5 6.56344C6.00816 6.56344 4.57742 7.15607 3.52252 8.21096C2.46763 9.26585 1.875 10.6966 1.875 12.1884C1.875 13.6803 2.46763 15.111 3.52252 16.1659C4.57742 17.2208 6.00816 17.8134 7.5 17.8134C8.99184 17.8134 10.4226 17.2208 11.4775 16.1659C12.5324 15.111 13.125 13.6803 13.125 12.1884C13.125 10.6966 12.5324 9.26585 11.4775 8.21096C10.4226 7.15607 8.99184 6.56344 7.5 6.56344ZM7.5 7.96969L8.73937 10.4822L11.5125 10.8853L9.50625 12.84L9.97969 15.6019L7.5 14.2978L5.02031 15.6009L5.49375 12.84L3.4875 10.8844L6.26063 10.4813L7.5 7.96969ZM13.125 0.000937544V2.81344L11.8472 3.88031C10.7871 3.32322 9.62928 2.97653 8.4375 2.85937V0.000937544H13.125ZM6.5625 0V2.85937C5.3711 2.97636 4.21358 3.32272 3.15375 3.87937L1.875 2.81344V0.000937544L6.5625 0Z" fill="#ACACAC"/>
</svg>
