<svg width="20" height="19" viewBox="0 0 20 19" fill="none" xmlns="http://www.w3.org/2000/svg">
<path d="M0 6.55172C0 2.93331 2.88849 0 6.45161 0H13.5484C17.1115 0 20 2.93331 20 6.55172V12.4483C20 16.0667 17.1115 19 13.5484 19H6.45161C2.88849 19 0 16.0667 0 12.4483V6.55172Z" fill="#FFC700"/>
<path d="M13.8065 0H10.7097V3.19121C11.8178 3.31503 12.8801 3.70852 13.8065 4.33829V0ZM9.16129 0H6.06452V4.33829C6.99088 3.70852 8.0532 3.31503 9.16129 3.19121V0ZM9.93548 15.7241C11.3728 15.7241 12.7512 15.1443 13.7675 14.1122C14.7839 13.0801 15.3548 11.6803 15.3548 10.2207C15.3548 8.76108 14.7839 7.36126 13.7675 6.32916C12.7512 5.29707 11.3728 4.71724 9.93548 4.71724C8.49818 4.71724 7.11975 5.29707 6.10342 6.32916C5.0871 7.36126 4.51613 8.76108 4.51613 10.2207C4.51613 11.6803 5.0871 13.0801 6.10342 14.1122C7.11975 15.1443 8.49818 15.7241 9.93548 15.7241ZM8.9871 9.02644L9.93548 7.07586L10.8839 9.02644L13.0036 9.33857L11.4699 10.8575L11.8323 13.0015L9.93548 11.9897L8.03948 13.0015L8.40181 10.8575L6.86813 9.33857L8.9871 9.02644Z" fill="white"/>
</svg>
