<svg width="34" height="28" viewBox="0 0 34 28" fill="none" xmlns="http://www.w3.org/2000/svg">
<path d="M3.66665 27.3327C2.74998 27.3327 1.96554 27.0066 1.31331 26.3543C0.661091 25.7021 0.334424 24.9171 0.333313 23.9993V18.9993H15.3333C16.25 18.9993 17.035 18.6732 17.6883 18.021C18.3416 17.3688 18.6678 16.5838 18.6666 15.666V0.666016H30.3333C31.25 0.666016 32.035 0.992682 32.6883 1.64602C33.3416 2.29935 33.6678 3.08379 33.6666 3.99935V23.9993C33.6666 24.916 33.3405 25.701 32.6883 26.3543C32.0361 27.0077 31.2511 27.3338 30.3333 27.3327H3.66665ZM0.333313 17.3327V7.33268C0.333313 6.41602 0.65998 5.63157 1.31331 4.97935C1.96665 4.32713 2.75109 4.00046 3.66665 3.99935H13.6666L0.333313 17.3327ZM6.70831 15.666L15.3333 7.04102V15.666H6.70831Z" fill="black" fill-opacity="0.4"/>
</svg>
