<svg width="15" height="15" viewBox="0 0 15 15" fill="none" xmlns="http://www.w3.org/2000/svg">
<path fill-rule="evenodd" clip-rule="evenodd" d="M7.5 13.5938C8.56978 13.5953 9.62094 13.3139 10.5469 12.7781V10.7812C10.5469 10.2218 10.3246 9.68528 9.92905 9.2897C9.53347 8.89411 8.99694 8.67188 8.4375 8.67188H6.5625C6.00306 8.67188 5.46653 8.89411 5.07095 9.2897C4.67536 9.68528 4.45312 10.2218 4.45312 10.7812V12.7781C5.37905 13.3139 6.43022 13.5953 7.5 13.5938ZM11.9531 10.7812V11.6597C12.7638 10.7919 13.3032 9.70606 13.5051 8.53578C13.7069 7.36549 13.5624 6.16173 13.0894 5.07246C12.6163 3.98319 11.8353 3.05589 10.8423 2.40454C9.84925 1.75319 8.68756 1.40619 7.5 1.40619C6.31244 1.40619 5.15075 1.75319 4.15775 2.40454C3.16474 3.05589 2.3837 3.98319 1.91062 5.07246C1.43755 6.16173 1.29307 7.36549 1.49493 8.53578C1.6968 9.70606 2.23621 10.7919 3.04688 11.6597V10.7812C3.0466 10.0564 3.27038 9.34915 3.6876 8.75639C4.10481 8.16363 4.69505 7.71433 5.3775 7.47C5.02349 7.06281 4.79408 6.56238 4.71663 6.0284C4.63918 5.49443 4.71696 4.94944 4.9407 4.45845C5.16443 3.96746 5.52468 3.5512 5.97847 3.2593C6.43226 2.9674 6.96044 2.8122 7.5 2.8122C8.03956 2.8122 8.56774 2.9674 9.02153 3.2593C9.47532 3.5512 9.83557 3.96746 10.0593 4.45845C10.283 4.94944 10.3608 5.49443 10.2834 6.0284C10.2059 6.56238 9.97651 7.06281 9.6225 7.47C10.3049 7.71433 10.8952 8.16363 11.3124 8.75639C11.7296 9.34915 11.9534 10.0564 11.9531 10.7812ZM7.5 15C9.48912 15 11.3968 14.2098 12.8033 12.8033C14.2098 11.3968 15 9.48912 15 7.5C15 5.51088 14.2098 3.60322 12.8033 2.1967C11.3968 0.790176 9.48912 0 7.5 0C5.51088 0 3.60322 0.790176 2.1967 2.1967C0.790176 3.60322 0 5.51088 0 7.5C0 9.48912 0.790176 11.3968 2.1967 12.8033C3.60322 14.2098 5.51088 15 7.5 15ZM8.90625 5.625C8.90625 5.99796 8.75809 6.35565 8.49437 6.61937C8.23065 6.88309 7.87296 7.03125 7.5 7.03125C7.12704 7.03125 6.76935 6.88309 6.50563 6.61937C6.24191 6.35565 6.09375 5.99796 6.09375 5.625C6.09375 5.25204 6.24191 4.89435 6.50563 4.63063C6.76935 4.36691 7.12704 4.21875 7.5 4.21875C7.87296 4.21875 8.23065 4.36691 8.49437 4.63063C8.75809 4.89435 8.90625 5.25204 8.90625 5.625Z" fill="#ACACAC"/>
</svg>
