<svg width="15" height="15" viewBox="0 0 15 15" fill="none" xmlns="http://www.w3.org/2000/svg">
<path fill-rule="evenodd" clip-rule="evenodd" d="M2.1967 2.1967C3.60322 0.790176 5.51088 0 7.5 0C9.48912 0 11.3968 0.790176 12.8033 2.1967C14.2098 3.60322 15 5.51088 15 7.5C15 8.48491 14.806 9.46018 14.4291 10.3701C14.0522 11.2801 13.4997 12.1069 12.8033 12.8033C12.1069 13.4997 11.2801 14.0522 10.3701 14.4291C9.46018 14.806 8.48491 15 7.5 15C6.51509 15 5.53982 14.806 4.62987 14.4291C3.71993 14.0522 2.89314 13.4997 2.1967 12.8033C1.50026 12.1069 0.947814 11.2801 0.570903 10.3701C0.193993 9.46018 0 8.48491 0 7.5C4.47035e-08 5.51088 0.790176 3.60322 2.1967 2.1967ZM7.5 1.5C5.9087 1.5 4.38258 2.13214 3.25736 3.25736C2.13214 4.38258 1.5 5.9087 1.5 7.5C1.5 8.28793 1.65519 9.06815 1.95672 9.7961C2.25825 10.5241 2.70021 11.1855 3.25736 11.7426C3.81451 12.2998 4.47595 12.7417 5.2039 13.0433C5.93185 13.3448 6.71207 13.5 7.5 13.5C8.28793 13.5 9.06815 13.3448 9.7961 13.0433C10.5241 12.7417 11.1855 12.2998 11.7426 11.7426C12.2998 11.1855 12.7418 10.5241 13.0433 9.7961C13.3448 9.06815 13.5 8.28793 13.5 7.5C13.5 5.9087 12.8679 4.38258 11.7426 3.25736C10.6174 2.13214 9.0913 1.5 7.5 1.5Z" fill="#ACACAC"/>
<path fill-rule="evenodd" clip-rule="evenodd" d="M7.5 3C7.91421 3 8.25 3.33579 8.25 3.75V7.18934L10.2803 9.21967C10.5732 9.51256 10.5732 9.98744 10.2803 10.2803C9.98744 10.5732 9.51256 10.5732 9.21967 10.2803L6.96967 8.03033C6.82902 7.88968 6.75 7.69891 6.75 7.5V3.75C6.75 3.33579 7.08579 3 7.5 3Z" fill="#ACACAC"/>
</svg>
