<svg width="30" height="30" viewBox="0 0 30 30" fill="none" xmlns="http://www.w3.org/2000/svg">
<path d="M10.6605 5.172C11.5575 2.547 15.1845 2.4675 16.248 4.9335L16.338 5.1735L17.5485 8.7135C17.826 9.52535 18.2742 10.2683 18.8632 10.8921C19.4521 11.516 20.168 12.0063 20.9625 12.33L21.288 12.4515L24.828 13.6605C27.453 14.5575 27.5325 18.1845 25.068 19.248L24.828 19.338L21.288 20.5485C20.4759 20.8257 19.7327 21.2739 19.1086 21.8629C18.4844 22.4518 17.9939 23.1678 17.67 23.9625L17.5485 24.2865L16.3395 27.828C15.4425 30.453 11.8155 30.5325 10.7535 28.068L10.6605 27.828L9.45153 24.288C9.1743 23.4759 8.72609 22.7327 8.13715 22.1085C7.5482 21.4844 6.83222 20.9938 6.03753 20.67L5.71353 20.5485L2.17353 19.3395C-0.452966 18.4425 -0.532465 14.8155 1.93353 13.7535L2.17353 13.6605L5.71353 12.4515C6.52538 12.1741 7.2683 11.7258 7.89217 11.1369C8.51604 10.5479 9.00635 9.83204 9.33004 9.0375L9.45153 8.7135L10.6605 5.172ZM25.5 2.71031e-07C25.7807 -3.53958e-07 26.0556 0.0787174 26.2938 0.227207C26.5319 0.375697 26.7236 0.588004 26.847 0.84L26.919 1.0155L27.444 2.5545L28.9845 3.0795C29.2658 3.17504 29.5123 3.35192 29.6929 3.58772C29.8735 3.82352 29.98 4.10763 29.999 4.40403C30.0179 4.70044 29.9484 4.9958 29.7994 5.25268C29.6503 5.50957 29.4283 5.71641 29.1615 5.847L28.9845 5.919L27.4455 6.444L26.9205 7.9845C26.8248 8.26564 26.6478 8.51205 26.4119 8.69249C26.176 8.87293 25.8919 8.97929 25.5955 8.99808C25.2991 9.01688 25.0038 8.94727 24.747 8.79807C24.4902 8.64887 24.2835 8.4268 24.153 8.16L24.081 7.9845L23.556 6.4455L22.0155 5.9205C21.7343 5.82496 21.4878 5.64808 21.3072 5.41228C21.1266 5.17648 21.0201 4.89237 21.0011 4.59597C20.9822 4.29956 21.0516 4.0042 21.2007 3.74732C21.3498 3.49043 21.5718 3.28359 21.8385 3.153L22.0155 3.081L23.5545 2.556L24.0795 1.0155C24.1807 0.719138 24.372 0.461863 24.6268 0.279748C24.8815 0.0976335 25.1869 -0.000187922 25.5 2.71031e-07Z" fill="#FF9A62"/>
</svg>
